<svg id="Layer_1" height="512" viewBox="0 0 512 512" width="512" xmlns="http://www.w3.org/2000/svg" data-name="Layer 1"><circle cx="307.664" cy="295.503" r="6.625"/><path d="m16 236.323v59.1a5.574 5.574 0 0 0 5.568 5.577h9.447v-70.24h-9.447a5.575 5.575 0 0 0 -5.568 5.563z"/><path d="m94.751 230.755h141.12v71.373h-141.12z"/><path d="m190.912 143.29h129.495v37.941h-129.495z"/><path d="m302.158 120.041h-93a18.269 18.269 0 0 0 -17.536 13.249h128.072a18.271 18.271 0 0 0 -17.536-13.249z"/><path d="m469.013 398.979 26.987 17.326v-202.921l-26.987 17.323z"/><path d="m449.947 120.041h-69.747a18.271 18.271 0 0 0 -17.536 13.249h-32.664v10h32.663a18.27 18.27 0 0 0 17.537 13.249h69.748a18.249 18.249 0 1 0 0-36.5z"/><path d="m349.176 191.231h-274.732a33.467 33.467 0 0 0 -33.429 33.429v180.369a33.467 33.467 0 0 0 33.429 33.429h274.732a33.466 33.466 0 0 0 33.424-33.429v-180.369a33.467 33.467 0 0 0 -33.424-33.429zm-264.425 34.524a5 5 0 0 1 5-5h151.12a5 5 0 0 1 5 5v81.373a5 5 0 0 1 -5 5h-151.12a5 5 0 0 1 -5-5zm194.324 148.894h-189.324a5 5 0 1 1 0-10h189.324a5 5 0 0 1 0 10zm40.214 0h-15.365a5 5 0 0 1 0-10h15.365a5 5 0 0 1 0 10zm-11.625-62.521a16.625 16.625 0 1 1 16.625-16.628 16.643 16.643 0 0 1 -16.625 16.628zm0-58.123a16.625 16.625 0 1 1 16.625-16.625 16.643 16.643 0 0 1 -16.625 16.625z"/><path d="m392.604 349.924 66.409 42.635v-155.434l-66.409 42.626z"/><circle cx="307.664" cy="237.38" r="6.625"/><path d="m72.646 119.69a46.149 46.149 0 1 0 46.154-46.148 46.2 46.2 0 0 0 -46.154 46.148zm74.4 0a28.25 28.25 0 1 1 -28.25-28.249 28.281 28.281 0 0 1 28.248 28.249z"/><path d="m100.545 119.69a18.25 18.25 0 1 0 18.249-18.249 18.27 18.27 0 0 0 -18.249 18.249z"/></svg>